<svg xmlns="http://www.w3.org/2000/svg" width="14" height="14" viewBox="0 0 14 14">
  <path fill="#000000" d="M5.76,4.34578644 L0.947106781,-0.467106781 C0.556582489,-0.857631073 -0.0765824894,-0.857631073 -0.467106781,-0.467106781 C-0.857631073,-0.0765824894 -0.857631073,0.556582489 -0.467106781,0.947106781 L4.34578644,5.76 L-0.467106781,10.5728932 C-0.857631073,10.9634175 -0.857631073,11.5965825 -0.467106781,11.9871068 C-0.0765824894,12.3776311 0.556582489,12.3776311 0.947106781,11.9871068 L5.76,7.17421356 L10.5728932,11.9871068 C10.9634175,12.3776311 11.5965825,12.3776311 11.9871068,11.9871068 C12.3776311,11.5965825 12.3776311,10.9634175 11.9871068,10.5728932 L7.17421356,5.76 L11.9871068,0.947106781 C12.3776311,0.556582489 12.3776311,-0.0765824894 11.9871068,-0.467106781 C11.5965825,-0.857631073 10.9634175,-0.857631073 10.5728932,-0.467106781 L5.76,4.34578644 Z" transform="translate(1 1)"/>
</svg>
